<svg width="12" height="15" viewBox="0 0 12 15" fill="none" xmlns="http://www.w3.org/2000/svg">
<g clip-path="url(#clip0_8_27)">
<path d="M10.375 6.48149H1.625C0.934644 6.48149 0.375 7.07371 0.375 7.80424V12.4339C0.375 13.1644 0.934644 13.7566 1.625 13.7566H10.375C11.0654 13.7566 11.625 13.1644 11.625 12.4339V7.80424C11.625 7.07371 11.0654 6.48149 10.375 6.48149Z" stroke="#9A9A9A" stroke-linecap="round" stroke-linejoin="round"/>
<path d="M2.87503 6.48148V3.83598C2.87503 2.95894 3.20427 2.11782 3.79032 1.49766C4.37637 0.877501 5.17123 0.529099 6.00003 0.529099C6.82883 0.529099 7.62369 0.877501 8.20974 1.49766C8.79579 2.11782 9.12503 2.95894 9.12503 3.83598V6.48148" stroke="#9A9A9A" stroke-linecap="round" stroke-linejoin="round"/>
</g>
<defs>
<clipPath id="clip0_8_27">
<rect width="12" height="14.2857" fill="white"/>
</clipPath>
</defs>
</svg>
